<svg width="16" height="16" xmlns="http://www.w3.org/2000/svg" xmlns:xlink="http://www.w3.org/1999/xlink" overflow="hidden"><defs><clipPath id="clip0"><rect x="867" y="256" width="16" height="16"/></clipPath></defs><g clip-path="url(#clip0)" transform="translate(-867 -256)"><path d="M877.854 263.146C878.049 263.341 878.05 263.658 877.855 263.853 877.855 263.853 877.854 263.854 877.854 263.854L874.854 266.854C874.659 267.049 874.342 267.05 874.147 266.855 874.147 266.855 874.146 266.854 874.146 266.854L872.646 265.354C872.451 265.158 872.451 264.842 872.646 264.646 872.841 264.451 873.159 264.451 873.354 264.646L874.5 265.793 877.146 263.146C877.341 262.951 877.658 262.95 877.853 263.145 877.853 263.145 877.854 263.146 877.854 263.146Z" fill="#595959"/><path d="M870.5 256C870.776 256 871 256.224 871 256.5L871 257 879 257 879 256.5C879 256.224 879.224 256 879.5 256 879.776 256 880 256.224 880 256.5L880 257 881 257C882.105 257 883 257.895 883 259L883 270C883 271.105 882.105 272 881 272L869 272C867.895 272 867 271.105 867 270L867 259C867 257.895 867.895 257 869 257L870 257 870 256.5C870 256.224 870.224 256 870.5 256ZM868 260 868 270C868 270.552 868.448 271 869 271L881 271C881.552 271 882 270.552 882 270L882 260 868 260Z" fill="#595959"/></g></svg>