<svg width="16" height="16" xmlns="http://www.w3.org/2000/svg" xmlns:xlink="http://www.w3.org/1999/xlink" overflow="hidden"><defs><clipPath id="clip0"><rect x="843" y="361" width="16" height="16"/></clipPath></defs><g clip-path="url(#clip0)" transform="translate(-843 -361)"><path d="M843 363.5C843 362.672 843.672 362 844.5 362L855.5 362C856.328 362 857 362.672 857 363.5L857 374.028C857 374.328 856.95 374.682 856.762 375L857.5 375C857.776 375 858 374.776 858 374.5L858 365.5C858 365.224 858.224 365 858.5 365 858.776 365 859 365.224 859 365.5L859 374.5C859 375.328 858.328 376 857.5 376L844.497 376C843.67 376 843 375.33 843 374.503 843 374.502 843 374.501 843 374.5L843 363.5ZM855 375C855.37 375 855.654 374.789 855.853 374.559 855.945 374.453 856 374.28 856 374.028L856 363.5C856 363.224 855.776 363 855.5 363L844.5 363C844.224 363 844 363.224 844 363.5L844 374.5C844 374.778 844.223 375 844.497 375L855 375Z" fill="#595959"/><path d="M845 364 855 364 855 366 845 366 845 364ZM845 367 849 367 849 370 845 370 845 367ZM845 371 849 371 849 372 845 372 845 371ZM845 373 849 373 849 374 845 374 845 373ZM850 367 852 367 852 368 850 368 850 367ZM853 367 855 367 855 368 853 368 853 367ZM850 369 852 369 852 370 850 370 850 369ZM853 369 855 369 855 370 853 370 853 369ZM850 371 852 371 852 372 850 372 850 371ZM853 371 855 371 855 372 853 372 853 371ZM850 373 852 373 852 374 850 374 850 373ZM853 373 855 373 855 374 853 374 853 373Z" fill="#595959"/></g></svg>