<svg width="16" height="16" xmlns="http://www.w3.org/2000/svg" xmlns:xlink="http://www.w3.org/1999/xlink" overflow="hidden"><defs><clipPath id="clip0"><rect x="851" y="342" width="16" height="16"/></clipPath></defs><g clip-path="url(#clip0)" transform="translate(-851 -342)"><path d="M858 356C858 356 857 356 857 355 857 354 858 351 862 351 866 351 867 354 867 355 867 356 866 356 866 356L858 356ZM862 350C863.657 350 865 348.657 865 347 865 345.343 863.657 344 862 344 860.343 344 859 345.343 859 347 859 348.657 860.343 350 862 350Z" fill="#595959"/><path d="M856.216 356C856.068 355.688 855.994 355.345 856 355 856 353.645 856.68 352.25 857.936 351.28 857.309 351.087 856.656 350.992 856 351 852 351 851 354 851 355 851 356 852 356 852 356L856.216 356Z" fill="#595959" fill-rule="evenodd"/><path d="M855.5 350C856.881 350 858 348.881 858 347.5 858 346.119 856.881 345 855.5 345 854.119 345 853 346.119 853 347.5 853 348.881 854.119 350 855.5 350Z" fill="#595959"/></g></svg>